<?xml version="1.0" encoding="UTF-8" standalone="no"?><svg xmlns="http://www.w3.org/2000/svg" xmlns:xlink="http://www.w3.org/1999/xlink" version="1.1" id="svg15" viewBox="0 0 99.522514 23.790001"><g id="g26" transform="translate(-10.25,-18.11)"><g id="g8" style="fill:#e43225"><path id="path2" d="M 35.742,35.825 V 20.083 h 9.296 v 1.972 h -7.374 v 4.84 h 6.628 v 1.972 h -6.628 v 4.938 h 7.888 v 1.972 h -9.8 z m 19.586,0 -3.198,-4.175 -3.182,4.176 h -2.254 l 4.375,-5.584 -4.607,-5.783 h 2.535 l 3.148,4.325 3.198,-4.325 h 2.486 l -4.375,5.783 4.126,5.584 z m 5.352,-1.7 V 41.9 H 58.758 V 30.3 c 0,-2.966 2.254,-6.115 5.783,-6.115 3.563,0 6.247,2.254 6.247,5.965 0,3.612 -2.718,6.115 -5.816,6.115 -1.508,0 -3.53,-0.663 -4.292,-2.12 z m 8.086,-3.994 c 0,-2.535 -1.64,-4.043 -4.557,-3.894 -1.4,0.05 -3.563,1.077 -3.38,4.7 0.05,1.177 1.276,3.38 3.944,3.38 2.303,0.017 3.994,-1.3 3.994,-4.176 z m 3.664,5.684 V 24.457 h 1.922 v 1.226 c 0.945,-1.077 2.403,-1.458 3.944,-1.458 v 2.07 c -0.232,-0.05 -2.535,-0.33 -3.944,2.684 v 6.9 H 72.43 Z m 6.395,-5.675 c 0,-3.28 2.353,-5.965 5.584,-5.965 4.043,0 5.535,2.684 5.535,6.115 v 0.945 H 80.93 c 0.15,2.154 2.07,3.28 3.844,3.248 1.3,-0.05 2.204,-0.43 3.148,-1.36 l 1.276,1.3 c -1.177,1.127 -2.684,1.872 -4.507,1.872 -3.43,-0.05 -5.866,-2.585 -5.866,-6.164 z m 5.435,-4.043 c -1.84,0 -3.248,1.6 -3.33,3.33 h 6.993 c 0,-1.674 -1.2,-3.33 -3.662,-3.33 z"/><use id="use4" xlink:href="#A" x="0" y="0" width="100%" height="100%" /><use id="use6" x="9.9099998" xlink:href="#A" y="0" width="100%" height="100%" /></g><path id="path10" d="m 22.684,35.825 -1.4,-3.762 H 13.67 l -1.4,3.762 h -2.02 l 6.115,-15.742 h 2.204 l 6.065,15.742 z M 17.38,22.353 14.513,30.158 h 5.965 z m 8.502,13.472 V 20.083 h 1.972 v 15.742 z m 4.938,0 V 24.7 h 1.972 v 11.135 z m 3.844,-14.748 v -0.2 C 33.156,20.827 31.946,19.601 31.897,18.11 H 31.6 c -0.05,1.508 -1.276,2.718 -2.767,2.767 v 0.2 c 1.508,0.05 2.718,1.276 2.767,2.767 h 0.298 a 2.87,2.87 0 0 1 2.767,-2.767 z" style="fill:#f7971d"/></g><defs id="defs13"><path id="A" d="m 90.938,34.234 1.4,-1.276 c -0.05,0 0.713,0.746 0.795,0.795 a 2.5,2.5 0 0 0 1.077,0.563 c 1.226,0.33 3.43,0.232 3.612,-1.458 0.1,-0.945 -0.613,-1.458 -1.4,-1.8 -1.027,-0.38 -2.154,-0.514 -3.198,-0.994 -1.177,-0.514 -1.922,-1.4 -1.922,-2.718 0,-3.43 4.888,-3.994 7.092,-2.403 l 1.127,1.077 -1.4,1.127 c -0.713,-0.845 -1.36,-1.276 -2.867,-1.276 -0.746,0 -1.8,0.33 -1.972,1.127 -0.282,1.127 0.994,1.558 1.84,1.8 1.127,0.282 2.353,0.464 3.33,1.077 1.36,0.845 1.7,2.684 1.177,4.093 -0.563,1.558 -2.254,2.154 -3.762,2.204 -1.8,0.1 -3.33,-0.464 -4.607,-1.74 -0.083,0.033 -0.315,-0.2 -0.315,-0.2 z"/></defs></svg>